General

Format                           : MPEG-4
Format profile                   : Base Media
Codec ID                         : isom
File size                        : 176 MiB
Duration                         : 4mn 21s
Overall bit rate                 : 5 667 Kbps
Encoded date                     : UTC 2012-03-07 16:27:54
Tagged date                      : UTC 2012-03-07 16:27:54

Video
ID                               : 1
Format                           : AVC
Format/Info                      : Advanced Video Codec
Format profile                   : High@L3.0
Format settings, CABAC           : Yes
Format settings, ReFrames        : 2 frames
Codec ID                         : avc1
Codec ID/Info                    : Advanced Video Coding
Duration                         : 4mn 20s
Bit rate mode                    : Variable
Bit rate                         : 5 588 Kbps
Maximum bit rate                 : 9 831 Kbps
Width                            : 720 pixels
Height                           : 576 pixels
Display aspect ratio             : 4:3
Original display aspect ratio    : 4:3
Frame rate mode                  : Constant
Frame rate                       : 25.000 fps
Standard                         : PAL
Color space                      : YUV
Chroma subsampling               : 4:2:0
Bit depth                        : 8 bits
Scan type                        : Progressive
Bits/(Pixel*Frame)               : 0.539
Stream size                      : 174 MiB (99%)


Audio
ID                               : 2
Format                           : AAC
Format/Info                      : Advanced Audio Codec
Format profile                   : LC
Codec ID                         : 40
Duration                         : 4mn 21s
Bit rate mode                    : Variable
Bit rate                         : 67.6 Kbps
Maximum bit rate                 : 81.5 Kbps
Channel(s)                       : 2 channels
Channel positions                : Front: L R
Sampling rate                    : 48.0 KHz
Compression mode                 : Lossy
Stream size                      : 2.10 MiB (1%)


